<?xml version="1.0" standalone="no"?>
<!DOCTYPE svg PUBLIC "-//W3C//DTD SVG 20010904//EN"
 "http://www.w3.org/TR/2001/REC-SVG-20010904/DTD/svg10.dtd">
<svg version="1.0" xmlns="http://www.w3.org/2000/svg"
 width="960.000000pt" height="540.000000pt" viewBox="0 0 960.000000 540.000000"
 preserveAspectRatio="xMidYMid meet">

<g transform="translate(0.000000,540.000000) scale(0.100000,-0.100000)"
fill="#000000" stroke="none">
<path d="M3590 4871 c-177 -36 -240 -253 -109 -378 65 -61 144 -78 230 -48
l43 15 121 -120 c67 -66 125 -120 129 -120 23 0 46 24 46 48 0 21 -25 52 -116
143 l-116 116 18 34 c23 45 23 133 -1 182 -45 95 -146 148 -245 128z m131
-130 c33 -33 39 -45 39 -82 0 -123 -131 -180 -216 -95 -85 85 -28 216 95 216
37 0 49 -6 82 -39z"/>
<path d="M5909 4866 c-131 -35 -203 -188 -143 -307 12 -25 9 -29 -107 -145
-118 -117 -135 -144 -107 -172 27 -27 55 -11 172 107 l118 118 30 -15 c76 -38
175 -23 240 36 175 158 24 439 -203 378z m129 -106 c69 -43 78 -136 18 -196
-85 -85 -216 -28 -216 95 0 37 6 49 39 82 33 33 45 39 82 39 26 0 57 -8 77
-20z"/>
<path d="M4637 4415 c-367 -70 -647 -327 -750 -690 -25 -91 -34 -301 -17 -399
26 -147 88 -288 178 -408 l53 -71 -105 -106 c-104 -105 -121 -132 -94 -159 27
-27 54 -10 159 94 l106 106 60 -46 c191 -145 441 -215 672 -188 235 27 422
121 584 292 117 123 187 250 235 422 25 93 24 356 -2 453 -46 168 -121 301
-240 424 -127 131 -278 220 -447 261 -112 28 -289 34 -392 15z m113 -480 l0
-405 -200 0 -200 0 0 40 c0 151 88 371 211 527 50 64 58 90 37 111 -22 22 -55
13 -86 -23 -130 -147 -234 -389 -257 -597 l-6 -58 -150 0 c-171 0 -158 -11
-135 112 68 357 360 635 721 687 33 5 61 9 63 10 1 0 2 -181 2 -404z m296 364
c146 -45 266 -121 375 -237 145 -155 214 -317 226 -529 20 -349 -170 -667
-488 -818 -83 -39 -212 -75 -271 -75 l-38 0 0 400 0 400 201 0 202 0 -6 -74
c-8 -87 -53 -234 -100 -323 -29 -57 -104 -168 -158 -234 -26 -33 -18 -66 17
-75 32 -8 50 8 126 110 112 150 193 355 213 539 l6 57 83 0 c86 0 106 8 106
45 0 37 -20 45 -106 45 l-83 0 -6 58 c-27 239 -140 478 -313 660 -38 39 -66
72 -62 72 4 0 39 -10 76 -21z m-47 -152 c68 -78 132 -176 172 -264 39 -86 79
-240 79 -304 l0 -49 -200 0 -200 0 0 381 0 381 48 -42 c26 -23 71 -69 101
-103z m-744 -764 c27 -241 135 -470 309 -650 43 -46 74 -83 68 -83 -5 0 -41
10 -78 21 -302 93 -531 348 -590 657 -23 123 -36 112 135 112 l150 0 6 -57z
m495 -325 l0 -382 -76 74 c-126 124 -195 222 -255 363 -37 88 -69 216 -69 280
l0 47 200 0 200 0 0 -382z"/>
<path d="M5552 2728 c-28 -28 -11 -55 107 -172 116 -116 119 -120 107 -145
-22 -43 -26 -89 -15 -143 9 -42 22 -62 64 -104 58 -59 90 -69 181 -62 141 12
235 174 175 303 -51 112 -167 160 -287 119 l-47 -16 -116 116 c-115 114 -142
131 -169 104z m468 -293 c127 -66 85 -245 -59 -245 -37 0 -49 6 -82 39 -33 33
-39 45 -39 82 0 101 96 167 180 124z"/>
<path d="M3545 2521 c-121 -55 -167 -185 -107 -302 39 -78 92 -112 181 -117
80 -5 129 15 180 74 42 47 53 77 53 145 0 158 -165 265 -307 200z m140 -85
c45 -19 75 -69 75 -125 0 -37 -6 -49 -39 -82 -33 -33 -45 -39 -82 -39 -141 0
-186 167 -66 240 38 24 66 25 112 6z"/>
<path d="M3670 1743 c-24 -3 -47 -8 -50 -13 -3 -5 -7 -76 -8 -158 -3 -131 -1
-151 15 -171 21 -25 95 -37 167 -27 40 6 46 10 46 32 0 13 -6 24 -12 25 -7 0
-44 2 -83 2 l-70 2 -3 46 -3 46 47 7 c26 3 61 6 79 6 37 0 58 20 49 45 -6 15
-17 17 -86 12 l-78 -5 0 43 c0 42 2 44 33 50 17 3 57 5 87 3 53 -3 55 -2 55
22 0 36 -48 45 -185 33z"/>
<path d="M3950 1742 l-45 -7 -8 -135 c-11 -170 -3 -205 51 -220 72 -20 166
-11 177 18 10 27 -13 36 -87 33 -80 -3 -88 3 -88 60 0 36 1 36 46 43 26 3 61
6 79 6 37 0 60 22 51 46 -6 14 -18 16 -86 11 l-80 -5 0 43 c0 40 2 44 31 50
17 4 55 4 83 1 42 -6 55 -4 66 9 32 39 -70 64 -190 47z"/>
<path d="M6020 1743 c-24 -3 -47 -8 -50 -13 -3 -4 -5 -78 -5 -164 0 -127 3
-158 16 -171 19 -19 102 -30 163 -21 40 6 46 10 46 32 0 13 -6 24 -12 25 -7 0
-44 2 -83 2 l-70 2 -3 46 -3 46 47 7 c26 3 61 6 79 6 37 0 60 22 51 46 -6 14
-18 16 -86 11 l-80 -5 0 43 c0 42 2 44 33 50 17 3 57 5 87 3 53 -3 55 -2 55
22 0 36 -48 45 -185 33z"/>
<path d="M6300 1742 l-45 -7 -8 -135 c-10 -171 -2 -205 51 -220 77 -21 182 -7
182 24 0 24 -21 30 -94 27 -76 -3 -86 3 -86 56 0 39 3 41 76 48 98 10 106 13
102 38 -3 21 -8 22 -85 21 l-83 -1 0 42 c0 41 1 43 36 50 20 3 59 3 88 0 45
-6 54 -4 60 11 4 10 1 24 -8 32 -16 16 -117 24 -186 14z"/>
<path d="M5420 1726 c-6 -6 -10 -79 -10 -178 0 -141 2 -170 15 -174 31 -12 45
15 45 91 0 84 1 85 90 85 63 0 82 16 53 46 -13 12 -31 15 -80 12 l-63 -4 0 39
0 39 87 -3 c78 -4 88 -2 91 14 6 28 -57 48 -144 45 -40 -1 -78 -6 -84 -12z"/>
<path d="M5694 1723 c-12 -12 -14 -45 -12 -175 3 -143 5 -162 21 -172 30 -18
47 17 47 96 0 76 -1 75 95 80 43 3 50 6 53 25 4 27 -25 37 -98 31 l-50 -3 0
39 0 39 79 -6 c75 -5 101 2 101 26 0 34 -204 51 -236 20z"/>
<path d="M3276 1708 c-8 -13 -17 -39 -21 -58 -3 -19 -18 -81 -32 -138 -25 -97
-25 -104 -9 -120 28 -28 48 -4 69 89 l20 84 23 -79 c12 -43 29 -86 38 -94 14
-14 17 -14 35 2 11 10 32 55 47 100 l28 81 20 -85 c24 -98 30 -110 56 -110 30
0 32 15 11 97 -11 43 -25 110 -32 148 -14 88 -24 107 -52 103 -23 -3 -29 -16
-68 -146 -12 -40 -24 -71 -26 -69 -2 2 -12 46 -24 98 -11 51 -25 99 -31 106
-16 19 -36 16 -52 -9z"/>
<path d="M4163 1714 c-11 -28 6 -43 55 -50 l50 -6 6 -46 c3 -24 6 -80 6 -122
0 -54 4 -81 14 -89 17 -14 46 -4 47 18 3 35 -2 188 -7 213 -5 27 -5 27 63 30
62 3 68 5 71 26 2 12 -3 24 -10 26 -7 3 -75 7 -151 9 -112 4 -140 2 -144 -9z"/>
<path d="M4539 1707 c-40 -27 -52 -67 -20 -67 11 0 36 9 55 21 46 27 78 18 74
-19 -2 -20 -20 -39 -65 -72 -34 -25 -66 -55 -72 -68 -15 -30 -14 -89 1 -98 6
-4 52 -7 102 -7 72 0 92 4 100 16 18 29 -9 42 -85 42 -43 0 -69 4 -69 11 0 13
33 42 88 78 41 26 72 74 72 111 0 9 -13 30 -29 46 -38 38 -101 40 -152 6z"/>
<path d="M4928 1721 c-37 -5 -57 -16 -88 -46 -116 -113 -105 -268 21 -282 69
-8 160 44 145 82 -7 20 -29 19 -73 -5 -47 -25 -75 -25 -96 -2 -31 34 -14 101
41 160 32 35 76 43 86 16 3 -9 15 -14 28 -12 25 3 34 32 24 74 -7 25 -9 26
-88 15z"/>
<path d="M5154 1716 c-62 -27 -114 -117 -114 -197 0 -111 153 -178 249 -109
74 52 108 203 59 265 -40 51 -127 70 -194 41z m144 -72 c22 -31 11 -116 -22
-158 -31 -41 -63 -53 -108 -40 -80 23 -88 116 -17 188 37 36 42 38 86 33 29
-3 52 -12 61 -23z"/>
<path d="M3060 890 c0 -124 18 -134 22 -12 l3 87 45 -85 c26 -50 52 -86 63
-88 15 -3 17 7 17 97 0 61 -4 101 -10 101 -6 0 -10 -34 -10 -82 l0 -83 -46 83
c-32 59 -51 82 -65 82 -18 0 -19 -8 -19 -100z"/>
<path d="M3270 890 l0 -100 65 0 c37 0 65 4 65 10 0 6 -25 10 -56 10 l-55 0 3
38 3 37 53 3 c70 4 67 22 -4 22 -54 0 -55 0 -52 28 3 25 7 27 56 30 75 4 65
22 -13 22 l-65 0 0 -100z"/>
<path d="M3420 980 c0 -5 16 -10 35 -10 l35 0 0 -90 c0 -73 3 -90 15 -90 12 0
15 17 15 90 l0 90 35 0 c19 0 35 5 35 10 0 6 -35 10 -85 10 -50 0 -85 -4 -85
-10z"/>
<path d="M3628 890 c21 -76 31 -100 44 -100 12 0 21 18 34 75 10 41 21 72 24
70 4 -3 13 -31 20 -63 14 -70 23 -87 42 -80 14 6 63 186 53 196 -11 11 -23
-15 -40 -88 -10 -41 -21 -68 -23 -60 -3 8 -13 44 -22 80 -24 94 -41 91 -66
-12 l-21 -83 -11 40 c-6 22 -16 59 -22 83 -6 23 -17 42 -24 42 -11 0 -8 -22
12 -100z"/>
<path d="M3912 967 c-69 -74 -12 -200 83 -183 41 8 64 34 72 79 12 79 -22 127
-90 127 -32 0 -49 -6 -65 -23z m108 -17 c25 -25 27 -95 3 -122 -23 -26 -78
-24 -97 4 -26 37 -16 108 18 130 20 14 56 8 76 -12z"/>
<path d="M4110 890 c0 -82 3 -100 15 -100 11 0 15 11 15 40 0 33 3 40 20 40
10 0 33 -18 51 -40 18 -22 41 -40 52 -40 16 0 14 6 -17 40 l-37 41 21 26 c25
32 25 48 0 73 -15 15 -33 20 -70 20 l-50 0 0 -100z m91 70 c39 -21 16 -70 -33
-70 -26 0 -28 3 -28 40 0 34 3 40 21 40 11 0 29 -5 40 -10z"/>
<path d="M4310 890 c0 -82 3 -100 15 -100 10 0 15 10 15 34 0 52 18 54 57 7
19 -22 41 -41 49 -41 22 0 17 9 -27 57 l-40 44 41 47 c27 30 37 48 29 51 -7 2
-35 -20 -61 -50 l-48 -54 0 53 c0 39 -4 52 -15 52 -12 0 -15 -18 -15 -100z"/>
<path d="M4490 980 c0 -5 7 -10 15 -10 24 0 21 -148 -2 -166 -16 -12 -13 -13
25 -14 23 0 42 5 42 10 0 6 -4 10 -10 10 -6 0 -10 33 -10 80 0 47 4 80 10 80
6 0 10 5 10 10 0 6 -18 10 -40 10 -22 0 -40 -4 -40 -10z"/>
<path d="M4620 890 c0 -81 3 -100 15 -100 11 0 15 18 17 81 l3 81 43 -81 c31
-58 49 -81 63 -81 17 0 19 8 19 100 0 82 -3 100 -15 100 -12 0 -15 -16 -16
-82 l0 -83 -42 83 c-34 67 -46 82 -64 82 -22 0 -23 -3 -23 -100z"/>
<path d="M4849 961 c-33 -34 -39 -83 -14 -131 20 -39 78 -57 129 -40 34 11 36
14 36 56 l0 44 -40 0 c-29 0 -40 -4 -40 -15 0 -9 9 -15 25 -15 20 0 25 -5 25
-25 0 -23 -4 -25 -44 -25 -54 0 -76 24 -76 82 0 68 58 96 133 64 12 -6 17 -4
17 7 0 19 -21 27 -77 27 -36 0 -50 -6 -74 -29z"/>
<path d="M5150 890 c0 -60 4 -100 10 -100 6 0 10 34 10 83 l1 82 30 -57 c16
-32 31 -58 34 -58 3 0 18 26 34 58 l30 57 1 -82 c0 -67 3 -83 15 -83 12 0 15
18 15 100 0 94 -1 100 -21 100 -15 0 -27 -15 -46 -57 l-27 -58 -25 57 c-17 38
-32 57 -43 58 -16 0 -18 -11 -18 -100z"/>
<path d="M5402 908 c-17 -46 -33 -91 -37 -100 -5 -13 -2 -18 9 -18 8 0 18 11
22 25 5 22 11 25 54 25 43 0 49 -3 54 -25 4 -14 14 -25 22 -25 11 0 14 5 9 18
-4 9 -20 54 -37 100 -22 61 -34 82 -48 82 -14 0 -26 -21 -48 -82z m66 9 c16
-46 16 -47 -18 -47 -33 0 -35 3 -19 49 14 40 22 39 37 -2z"/>
<path d="M5570 891 l0 -101 50 0 c86 0 123 31 122 103 -1 61 -35 89 -112 95
l-60 4 0 -101z m98 68 c55 -19 66 -101 19 -134 -12 -8 -36 -15 -54 -15 l-33 0
0 80 c0 88 3 92 68 69z"/>
<path d="M5790 890 l0 -100 65 0 c37 0 65 4 65 10 0 6 -22 10 -50 10 l-50 0 0
40 0 40 50 0 c28 0 50 5 50 10 0 6 -22 10 -50 10 -49 0 -50 1 -50 30 0 29 1
30 50 30 28 0 50 5 50 10 0 6 -28 10 -65 10 l-65 0 0 -100z"/>
<path d="M6060 890 l0 -100 70 0 c40 0 70 4 70 10 0 6 -25 10 -55 10 l-55 0 0
40 0 40 55 0 c30 0 55 5 55 10 0 6 -25 10 -55 10 -54 0 -55 0 -55 30 0 30 1
30 55 30 30 0 55 5 55 10 0 6 -30 10 -70 10 l-70 0 0 -100z"/>
<path d="M6262 908 c-17 -46 -33 -91 -37 -100 -5 -13 -2 -18 9 -18 8 0 18 11
22 25 5 22 11 25 54 25 43 0 49 -3 54 -25 4 -14 14 -25 22 -25 11 0 14 5 9 18
-4 9 -20 54 -37 100 -22 61 -34 82 -48 82 -14 0 -26 -21 -48 -82z m62 18 c3
-13 9 -31 12 -40 5 -13 -1 -16 -25 -16 -34 0 -36 3 -20 49 13 37 25 40 33 7z"/>
<path d="M6448 979 c-20 -11 -25 -74 -7 -85 6 -4 32 -12 58 -19 39 -9 46 -15
46 -36 0 -22 -4 -24 -45 -23 -25 0 -53 4 -64 9 -14 6 -17 4 -15 -10 8 -37 103
-43 141 -8 42 38 12 84 -64 97 -39 7 -55 30 -37 52 14 17 62 18 91 3 17 -9 19
-8 16 8 -2 14 -14 19 -53 20 -28 2 -58 -2 -67 -8z"/>
<path d="M6621 953 c12 -21 29 -47 36 -58 7 -11 13 -39 13 -62 0 -32 4 -43 15
-43 11 0 15 12 15 45 0 35 8 59 35 100 25 40 31 55 20 55 -8 0 -28 -21 -44
-46 l-28 -46 -27 46 c-15 25 -34 46 -42 46 -13 0 -11 -7 7 -37z"/>
</g>
</svg>
